# File created by Blade
# Date/Time:  Wed Jan 21 17:57:11 2015
# Frame Rate: 120.000 fps
#------------------------------------------------------
:FULLY-SPECIFIED
:DEGREES
1090
root 19.294941 29.716753 -16.269716 -100.910578 -28.158432 -178.651931
Spine 59.239750 20.483865 -21.907686
Head 143.827603 -46.582846 175.214133
LeftShoulder 22.768827 -42.684564 -6.286345
LeftArm 23.892940 -15.715928 -21.776444
LeftForeArm -83.562071 -0.000000 83.148675
LeftHand 4.586782 -0.000000 -6.472795
LeftHandThumb1 -26.253704 0.000000 33.147579
RightShoulder 15.531667 37.350722 -45.601990
RightArm 61.371887 39.455280 28.891144
RightForeArm -34.206097 -0.000000 66.441147
RightHand -0.616939 -0.000000 26.117007
RightHandThumb1 -24.326973 -0.000000 -32.862282
LeftUpLeg -91.477870 27.616983 25.190968
LeftLeg 4.247365 -0.000000 -0.000000
LeftFoot -13.670140 4.738970 -21.215463
LeftToeBase 34.598591 -0.000000 -0.000000
RightUpLeg -71.744332 -34.792497 15.835542
RightLeg -6.857177 -0.000000 0.000000
RightFoot -15.030940 -11.726852 33.581884
RightToeBase 27.858107 -0.000000 -0.000000
1091
root 19.279778 29.718452 -16.242291 -100.832693 -28.026892 -178.850632
Spine 59.185942 20.260377 -21.931208
Head 143.766186 -46.642715 175.115445
LeftShoulder 22.727202 -42.586909 -6.326484
LeftArm 23.864138 -15.640085 -21.831423
LeftForeArm -83.649938 -0.000000 82.967484
LeftHand 4.655025 0.000000 -6.774782
LeftHandThumb1 -26.253704 0.000000 33.147579
RightShoulder 15.594112 37.398173 -45.651115
RightArm 61.352769 39.214823 28.760939
RightForeArm -34.232123 -0.000000 66.188332
RightHand -0.599853 0.000000 26.062715
RightHandThumb1 -24.326973 -0.000000 -32.862282
LeftUpLeg -91.606412 27.436680 25.065967
LeftLeg 4.381489 -0.000000 -0.000000
LeftFoot -13.660122 4.863886 -21.433311
LeftToeBase 34.577444 -0.000000 -0.000000
RightUpLeg -71.821768 -34.964998 15.638116
RightLeg -6.812774 -0.000000 0.000000
RightFoot -15.025602 -11.724001 33.636653
RightToeBase 27.886347 -0.000000 -0.000000
1092
root 19.281491 29.716663 -16.244004 -100.919399 -27.953114 -178.818971
Spine 59.162944 20.328348 -21.933860
Head 143.952413 -46.595659 175.033985
LeftShoulder 22.692973 -42.577089 -6.270781
LeftArm 23.841987 -15.538751 -21.837908
LeftForeArm -83.688452 -0.000000 82.787342
LeftHand 4.782136 0.000000 -6.686315
LeftHandThumb1 -26.253704 0.000000 33.147579
RightShoulder 15.619226 37.536203 -45.626956
RightArm 61.290007 38.975668 28.648139
RightForeArm -34.264276 -0.000000 65.958047
RightHand -0.566107 -0.000000 26.025414
RightHandThumb1 -24.326973 -0.000000 -32.862282
LeftUpLeg -91.548444 27.462212 24.991867
LeftLeg 4.412017 -0.000000 -0.000000
LeftFoot -13.637828 4.806859 -21.462773
LeftToeBase 34.614201 -0.000000 -0.000000
RightUpLeg -71.750082 -34.957542 15.592217
RightLeg -6.853131 -0.000000 0.000000
RightFoot -14.981485 -11.661710 33.609170
RightToeBase 27.902256 -0.000000 -0.000000
1093
root 19.282775 29.715792 -16.241770 -100.983717 -27.883535 -178.796753
Spine 59.123925 20.371000 -21.922614
Head 144.135355 -46.532404 174.926602
LeftShoulder 22.671701 -42.567832 -6.251154
LeftArm 23.819929 -15.416795 -21.806727
LeftForeArm -83.787641 0.000000 82.602163
LeftHand 4.771307 -0.000000 -6.801105
LeftHandThumb1 -26.253704 0.000000 33.147579
RightShoulder 15.631011 37.617453 -45.641177
RightArm 61.276960 38.781951 28.600580
RightForeArm -34.310744 -0.000000 65.737605
RightHand -0.530339 0.000000 25.990797
RightHandThumb1 -24.326973 -0.000000 -32.862282
LeftUpLeg -91.487663 27.485181 24.953163
LeftLeg 4.424513 -0.000000 -0.000000
LeftFoot -13.616802 4.761776 -21.509528
LeftToeBase 34.630170 -0.000000 -0.000000
RightUpLeg -71.674090 -34.941588 15.491831
RightLeg -6.883286 -0.000000 0.000000
RightFoot -14.963090 -11.650474 33.624471
RightToeBase 27.926057 -0.000000 -0.000000
